{"glyphs":{"0":{"ha":1397,"x_min":0,"x_max":1370,"o":"m 534 174 q 665 174 534 174 q 945 434 795 174 q 836 694 1096 694 q 425 434 575 694 q 534 174 274 174 m 434 0 q 217 0 434 0 q 201 347 0 0 q 331 781 401 694 q 815 868 260 868 q 1119 434 1370 868 q 434 0 868 0 z "},"1":{"ha":703,"x_min":0,"x_max":675,"o":"m 87 0 q 43 0 87 0 q 201 347 0 0 q 331 781 401 694 q 468 868 260 868 q 425 434 675 868 q 87 0 174 0 z "},"2":{"ha":1397,"x_min":0,"x_max":1370,"o":"m 918 87 q 893 43 918 87 q 434 0 868 0 q 151 260 0 0 q 648 521 301 521 q 1046 608 996 521 q 749 694 1096 694 q 331 781 401 694 q 815 868 260 868 q 1219 608 1370 868 q 722 347 1069 347 q 324 260 374 347 q 621 174 274 174 q 918 87 968 174 z "},"3":{"ha":1397,"x_min":0,"x_max":1370,"o":"m 331 781 q 296 825 331 781 q 815 868 260 868 q 1119 434 1370 868 q 434 0 868 0 q 50 87 0 0 q 448 174 100 174 q 845 260 795 174 q 548 347 895 347 q 251 434 201 347 q 648 521 301 521 q 1046 608 996 521 q 749 694 1096 694 q 331 781 401 694 z "},"4":{"ha":1196,"x_min":0,"x_max":1169,"o":"m 267 868 q 371 868 267 868 q 374 694 475 868 q 534 521 274 521 q 895 694 795 521 q 1082 868 996 868 q 918 434 1169 868 q 581 0 667 0 q 594 174 494 0 q 347 347 694 347 q 100 521 0 347 q 130 781 201 694 q 267 868 60 868 z "},"5":{"ha":1397,"x_min":0,"x_max":1370,"o":"m 434 0 q 217 0 434 0 q 50 87 0 0 q 448 174 100 174 q 845 260 795 174 q 548 347 895 347 q 301 521 201 347 q 331 781 401 694 q 815 868 260 868 q 1320 781 1370 868 q 922 694 1270 694 q 525 608 575 694 q 822 521 475 521 q 1019 260 1169 521 q 434 0 868 0 z "},"6":{"ha":1196,"x_min":0,"x_max":1169,"o":"m 534 174 q 665 174 534 174 q 845 260 795 174 q 635 347 895 347 q 324 260 374 347 q 534 174 274 174 m 468 868 q 572 868 468 868 q 575 694 675 868 q 822 521 475 521 q 1019 260 1169 521 q 434 0 868 0 q 201 347 0 0 q 331 781 401 694 q 468 868 260 868 z "},"7":{"ha":1137,"x_min":0,"x_max":1109,"o":"m 555 868 q 832 868 555 868 q 859 434 1109 868 q 521 0 608 0 q 635 347 434 0 q 488 694 836 694 q 71 781 141 694 q 555 868 0 868 z "},"8":{"ha":1397,"x_min":0,"x_max":1370,"o":"m 534 174 q 665 174 534 174 q 845 260 795 174 q 635 347 895 347 q 324 260 374 347 q 534 174 274 174 m 735 521 q 865 521 735 521 q 1046 608 996 521 q 836 694 1096 694 q 525 608 575 694 q 735 521 475 521 m 434 0 q 217 0 434 0 q 201 347 0 0 q 331 781 401 694 q 815 868 260 868 q 1119 434 1370 868 q 434 0 868 0 z "},"9":{"ha":1196,"x_min":0,"x_max":1169,"o":"m 534 521 q 665 521 534 521 q 845 608 795 521 q 635 694 895 694 q 324 608 374 694 q 534 521 274 521 m 100 521 q 151 608 100 521 q 130 781 201 694 q 614 868 60 868 q 918 434 1169 868 q 581 0 667 0 q 594 174 494 0 q 347 347 694 347 q 100 521 0 347 z "}," ":{"ha":434,"x_min":0,"x_max":0,"o":""},"!":{"ha":703,"x_min":0,"x_max":675,"o":"m 87 0 q 43 0 87 0 q 50 87 0 0 q 187 174 100 174 q 224 87 274 174 q 87 0 174 0 m 468 868 q 572 868 468 868 q 500 564 675 868 q 237 260 324 260 q 276 477 151 260 q 331 781 401 694 q 468 868 260 868 z "},"\"":{"ha":612,"x_min":0,"x_max":585,"o":"m 87 608 q 43 608 87 608 q 75 738 0 608 q 237 868 151 868 q 249 738 324 868 q 87 608 174 608 m 347 608 q 304 608 347 608 q 336 738 260 608 q 498 868 411 868 q 509 738 585 868 q 347 608 434 608 z "},"#":{"ha":1196,"x_min":0,"x_max":1169,"o":"m 534 347 q 578 347 534 347 q 671 434 621 347 q 635 521 722 521 q 498 434 548 521 q 534 347 448 347 m 160 0 q 117 0 160 0 q 123 87 73 0 q 87 174 174 174 q 50 260 0 174 q 187 347 100 347 q 324 434 274 347 q 288 521 374 521 q 251 608 201 521 q 388 694 301 694 q 525 781 475 694 q 662 868 575 868 q 699 781 749 868 q 735 694 648 694 q 872 781 822 694 q 1009 868 922 868 q 1046 781 1096 868 q 1082 694 996 694 q 1119 608 1169 694 q 982 521 1069 521 q 845 434 895 521 q 882 347 795 347 q 918 260 968 347 q 781 174 868 174 q 644 87 694 174 q 507 0 594 0 q 471 87 420 0 q 434 174 521 174 q 297 87 347 174 q 160 0 247 0 z "},"$":{"ha":1297,"x_min":0,"x_max":1370,"o":"m 434 0 q 217 0 434 0 q 50 87 0 0 q 448 174 100 174 q 845 260 795 174 q 548 347 895 347 q 301 521 201 347 q 331 781 401 694 q 815 868 260 868 q 1320 781 1370 868 q 922 694 1270 694 q 525 608 575 694 q 822 521 475 521 q 1019 260 1169 521 q 434 0 868 0 z "},"%":{"ha":1397,"x_min":0,"x_max":1370,"o":"m 781 0 q 738 0 781 0 q 745 87 694 0 q 882 174 795 174 q 918 87 968 174 q 781 0 868 0 m 488 694 q 445 694 488 694 q 452 781 401 694 q 589 868 502 868 q 625 781 675 868 q 488 694 575 694 m 109 0 q 54 0 109 0 q 576 434 0 0 q 1261 868 1153 868 q 793 434 1370 868 q 109 0 217 0 z "},"&":{"ha":822,"x_min":0,"x_max":795,"o":"m 197 87 q 153 87 197 87 q 185 217 110 87 q 130 347 260 347 q 50 434 0 347 q 231 521 100 521 q 423 629 361 521 q 572 738 486 738 q 597 629 659 738 q 665 521 534 521 q 745 434 795 521 q 564 347 694 347 q 359 217 434 347 q 197 87 283 87 z "},"'":{"ha":351,"x_min":0,"x_max":324,"o":"m 87 608 q 43 608 87 608 q 75 738 0 608 q 237 868 151 868 q 249 738 324 868 q 87 608 174 608 z "},"(":{"ha":1076,"x_min":0,"x_max":1048,"o":"m 174 -174 q 87 -174 174 -174 q 351 434 0 -174 q 875 1042 701 1042 q 999 955 1048 1042 q 863 868 949 868 q 525 434 776 868 q 361 0 274 0 q 397 -87 448 0 q 174 -174 347 -174 z "},")":{"ha":1076,"x_min":0,"x_max":1048,"o":"m 174 -174 q 87 -174 174 -174 q 50 -87 0 -174 q 187 0 100 0 q 525 434 274 0 q 689 868 776 868 q 652 955 602 868 q 875 1042 701 1042 q 698 434 1048 1042 q 174 -174 347 -174 z "},"*":{"ha":648,"x_min":0,"x_max":621,"o":"m 160 347 q 117 347 160 347 q 123 434 73 347 q 87 521 174 521 q 50 608 0 521 q 187 694 100 694 q 324 781 274 694 q 461 868 374 868 q 498 781 548 868 q 534 694 448 694 q 571 608 621 694 q 434 521 521 521 q 297 434 347 521 q 160 347 247 347 z "},"+":{"ha":996,"x_min":0,"x_max":968,"o":"m 233 0 q 190 0 233 0 q 247 174 146 0 q 174 347 347 347 q 50 434 0 347 q 274 521 100 521 q 548 694 448 521 q 735 868 648 868 q 722 694 822 868 q 795 521 621 521 q 918 434 968 521 q 694 347 868 347 q 420 174 521 347 q 233 0 320 0 z "},",":{"ha":351,"x_min":0,"x_max":324,"o":"m 87 0 q 43 0 87 0 q 75 130 0 0 q 237 260 151 260 q 249 130 324 260 q 87 0 174 0 z "},"-":{"ha":648,"x_min":0,"x_max":621,"o":"m 260 347 q 130 347 260 347 q 50 434 0 347 q 361 521 100 521 q 571 434 621 521 q 260 347 521 347 z "},".":{"ha":301,"x_min":0,"x_max":274,"o":"m 87 0 q 43 0 87 0 q 50 87 0 0 q 187 174 100 174 q 224 87 274 174 q 87 0 174 0 z "},"/":{"ha":1397,"x_min":0,"x_max":1370,"o":"m 109 0 q 54 0 109 0 q 576 434 0 0 q 1261 868 1153 868 q 793 434 1370 868 q 109 0 217 0 z "},":":{"ha":703,"x_min":104,"x_max":525,"o":"m 191 174 q 148 174 191 174 q 155 260 104 174 q 292 347 205 347 q 328 260 378 347 q 191 174 278 174 m 338 521 q 294 521 338 521 q 301 608 251 521 q 438 694 351 694 q 475 608 525 694 q 338 521 425 521 z "},";":{"ha":703,"x_min":61,"x_max":525,"o":"m 148 122 q 104 122 148 122 q 138 235 61 122 q 301 347 214 347 q 311 235 388 347 q 148 122 235 122 m 338 521 q 294 521 338 521 q 301 608 251 521 q 438 694 351 694 q 475 608 525 694 q 338 521 425 521 z "},"<":{"ha":799,"x_min":0,"x_max":772,"o":"m 663 868 q 718 868 663 868 q 494 651 772 868 q 243 217 217 434 q 161 0 270 0 q 26 217 53 0 q 277 651 0 434 q 663 868 555 868 z "},"=":{"ha":1109,"x_min":0,"x_max":1082,"o":"m 391 174 q 195 174 391 174 q 50 260 0 174 q 491 347 100 347 q 831 260 882 347 q 391 174 781 174 m 591 521 q 396 521 591 521 q 251 608 201 521 q 692 694 301 694 q 1032 608 1082 694 q 591 521 982 521 z "},">":{"ha":799,"x_min":0,"x_max":772,"o":"m 610 868 q 556 868 610 868 q 610 868 502 868 q 745 651 719 868 q 494 217 772 434 q 109 0 217 0 q 277 217 0 0 q 528 651 555 434 q 610 868 502 868 q 610 868 719 868 z "},"?":{"ha":1069,"x_min":0,"x_max":1042,"o":"m 106 0 q 62 0 106 0 q 69 87 19 0 q 206 174 119 174 q 243 87 293 174 q 106 0 193 0 m 567 347 q 480 347 567 347 q 368 304 393 347 q 256 260 343 260 q 245 391 170 260 q 494 521 320 521 q 718 608 667 521 q 420 694 768 694 q 37 781 73 694 q 521 868 0 868 q 891 608 1042 868 q 567 347 741 347 z "},"@":{"ha":1397,"x_min":0,"x_max":1370,"o":"m 849 868 q 1109 868 849 868 q 1194 564 1370 868 q 715 260 1019 260 q 511 434 411 260 q 699 608 612 608 q 735 521 785 608 q 815 434 685 434 q 1021 564 945 434 q 836 694 1096 694 q 425 434 575 694 q 621 174 274 174 q 918 87 968 174 q 434 0 868 0 q 201 347 0 0 q 365 781 401 694 q 849 868 328 868 z "},"A":{"ha":1397,"x_min":0,"x_max":1370,"o":"m 735 521 q 865 521 735 521 q 1046 608 996 521 q 836 694 1096 694 q 525 608 575 694 q 735 521 475 521 m 87 0 q 43 0 87 0 q 201 347 0 0 q 331 781 401 694 q 815 868 260 868 q 1119 434 1370 868 q 781 0 868 0 q 795 174 694 0 q 635 347 895 347 q 274 174 374 347 q 87 0 174 0 z "},"B":{"ha":1242,"x_min":0,"x_max":1215,"o":"m 324 260 q 299 217 324 260 q 534 174 274 174 q 845 260 795 174 q 635 347 895 347 q 324 260 374 347 m 1046 608 q 1071 651 1046 608 q 836 694 1096 694 q 525 608 575 694 q 735 521 475 521 q 1046 608 996 521 m 1030 391 q 1068 369 1030 391 q 987 174 1105 347 q 434 0 868 0 q 201 347 0 0 q 331 781 401 694 q 738 868 260 868 q 1193 694 1215 868 q 1063 477 1171 521 q 1030 391 955 434 z "},"C":{"ha":1397,"x_min":0,"x_max":1370,"o":"m 434 0 q 217 0 434 0 q 201 347 0 0 q 331 781 401 694 q 815 868 260 868 q 1320 781 1370 868 q 922 694 1270 694 q 425 434 575 694 q 621 174 274 174 q 918 87 968 174 q 434 0 868 0 z "},"D":{"ha":1397,"x_min":0,"x_max":1370,"o":"m 534 174 q 665 174 534 174 q 945 434 795 174 q 836 694 1096 694 q 425 434 575 694 q 534 174 274 174 m 434 0 q 217 0 434 0 q 201 347 0 0 q 331 781 401 694 q 815 868 260 868 q 1119 434 1370 868 q 434 0 868 0 z "},"E":{"ha":1397,"x_min":0,"x_max":1370,"o":"m 434 0 q 217 0 434 0 q 201 347 0 0 q 331 781 401 694 q 815 868 260 868 q 1320 781 1370 868 q 922 694 1270 694 q 525 608 575 694 q 822 521 475 521 q 1119 434 1169 521 q 722 347 1069 347 q 324 260 374 347 q 621 174 274 174 q 918 87 968 174 q 434 0 868 0 z "},"F":{"ha":1397,"x_min":0,"x_max":1370,"o":"m 87 0 q 43 0 87 0 q 201 347 0 0 q 331 781 401 694 q 815 868 260 868 q 1320 781 1370 868 q 922 694 1270 694 q 525 608 575 694 q 822 521 475 521 q 1119 434 1169 521 q 722 347 1069 347 q 274 174 374 347 q 87 0 174 0 z "},"G":{"ha":1397,"x_min":0,"x_max":1370,"o":"m 434 0 q 217 0 434 0 q 201 347 0 0 q 331 781 401 694 q 815 868 260 868 q 1320 781 1370 868 q 922 694 1270 694 q 425 434 575 694 q 534 174 274 174 q 845 260 795 174 q 808 347 895 347 q 772 434 722 347 q 996 521 822 521 q 1019 260 1169 521 q 434 0 868 0 z "},"H":{"ha":1397,"x_min":0,"x_max":1370,"o":"m 87 0 q 43 0 87 0 q 201 347 0 0 q 331 781 401 694 q 468 868 260 868 q 575 694 675 868 q 735 521 475 521 q 1096 694 996 521 q 1283 868 1196 868 q 1119 434 1370 868 q 781 0 868 0 q 795 174 694 0 q 635 347 895 347 q 274 174 374 347 q 87 0 174 0 z "},"I":{"ha":703,"x_min":0,"x_max":675,"o":"m 87 0 q 43 0 87 0 q 201 347 0 0 q 331 781 401 694 q 468 868 260 868 q 425 434 675 868 q 87 0 174 0 z "},"J":{"ha":1397,"x_min":0,"x_max":1370,"o":"m 324 260 q 299 217 324 260 q 534 174 274 174 q 945 434 795 174 q 1025 781 1096 694 q 1162 868 955 868 q 1119 434 1370 868 q 434 0 868 0 q 100 174 0 0 q 288 347 201 347 q 324 260 374 347 z "},"K":{"ha":1397,"x_min":0,"x_max":1370,"o":"m 0 0 q 0 0 0 0 q 201 347 0 0 q 331 781 401 694 q 468 868 260 868 q 575 694 675 868 q 792 694 475 521 q 1240 868 1109 868 q 962 651 1370 868 q 711 217 555 434 q 738 0 868 0 q 491 174 608 0 q 274 174 374 347 q 87 0 174 0 q 0 0 0 0 z "},"L":{"ha":996,"x_min":0,"x_max":968,"o":"m 434 0 q 217 0 434 0 q 201 347 0 0 q 331 781 401 694 q 468 868 260 868 q 475 521 675 868 q 621 174 274 174 q 918 87 968 174 q 434 0 868 0 z "},"M":{"ha":1763,"x_min":0,"x_max":1736,"o":"m 87 0 q 43 0 87 0 q 217 347 0 0 q 347 781 434 694 q 998 868 260 868 q 1485 434 1736 868 q 1147 0 1234 0 q 1261 347 1061 0 q 1295 694 1462 694 q 911 347 1128 694 q 608 0 694 0 q 738 347 521 0 q 781 694 955 694 q 391 347 608 694 q 87 0 174 0 z "},"N":{"ha":1397,"x_min":0,"x_max":1370,"o":"m 87 0 q 43 0 87 0 q 201 347 0 0 q 331 781 401 694 q 815 868 260 868 q 1119 434 1370 868 q 781 0 868 0 q 895 347 694 0 q 836 694 1096 694 q 374 347 575 694 q 87 0 174 0 z "},"O":{"ha":1397,"x_min":0,"x_max":1370,"o":"m 534 174 q 665 174 534 174 q 945 434 795 174 q 836 694 1096 694 q 425 434 575 694 q 534 174 274 174 m 434 0 q 217 0 434 0 q 201 347 0 0 q 331 781 401 694 q 815 868 260 868 q 1119 434 1370 868 q 434 0 868 0 z "},"P":{"ha":1397,"x_min":0,"x_max":1370,"o":"m 735 521 q 865 521 735 521 q 1046 608 996 521 q 836 694 1096 694 q 525 608 575 694 q 735 521 475 521 m 87 0 q 43 0 87 0 q 201 347 0 0 q 331 781 401 694 q 815 868 260 868 q 1219 608 1370 868 q 722 347 1069 347 q 274 174 374 347 q 87 0 174 0 z "},"Q":{"ha":1397,"x_min":0,"x_max":1370,"o":"m 534 174 q 665 174 534 174 q 945 434 795 174 q 836 694 1096 694 q 425 434 575 694 q 534 174 274 174 m 694 -87 q 694 -43 694 -87 q 347 0 694 0 q 201 347 0 0 q 331 781 401 694 q 815 868 260 868 q 1169 521 1370 868 q 918 87 968 174 q 868 -87 868 0 q 781 -174 868 -174 q 694 -87 694 -174 z "},"R":{"ha":1397,"x_min":0,"x_max":1370,"o":"m 735 521 q 865 521 735 521 q 1046 608 996 521 q 836 694 1096 694 q 525 608 575 694 q 735 521 475 521 m 600 174 q 574 260 600 174 q 461 347 548 347 q 274 174 374 347 q 87 0 174 0 q 201 347 0 0 q 331 781 401 694 q 815 868 260 868 q 1219 608 1370 868 q 917 347 1069 347 q 817 174 765 347 q 760 0 868 0 q 600 174 651 0 z "},"S":{"ha":1397,"x_min":0,"x_max":1370,"o":"m 434 0 q 217 0 434 0 q 50 87 0 0 q 448 174 100 174 q 845 260 795 174 q 548 347 895 347 q 301 521 201 347 q 331 781 401 694 q 815 868 260 868 q 1320 781 1370 868 q 922 694 1270 694 q 525 608 575 694 q 822 521 475 521 q 1019 260 1169 521 q 434 0 868 0 z "},"T":{"ha":1137,"x_min":0,"x_max":1109,"o":"m 174 0 q 130 0 174 0 q 288 347 87 0 q 315 694 488 694 q 71 781 141 694 q 555 868 0 868 q 1059 781 1109 868 q 836 694 1009 694 q 461 347 662 694 q 174 0 260 0 z "},"U":{"ha":1397,"x_min":0,"x_max":1370,"o":"m 434 0 q 217 0 434 0 q 201 347 0 0 q 331 781 401 694 q 468 868 260 868 q 475 521 675 868 q 534 174 274 174 q 996 521 795 174 q 1283 868 1196 868 q 1119 434 1370 868 q 434 0 868 0 z "},"V":{"ha":1050,"x_min":0,"x_max":1023,"o":"m 164 868 q 246 868 164 868 q 270 543 328 868 q 530 543 212 217 q 936 868 849 868 q 598 434 1023 868 q 87 0 174 0 q 62 349 0 0 q 62 783 125 697 q 164 868 0 868 z "},"W":{"ha":1763,"x_min":0,"x_max":1736,"o":"m 468 868 q 572 868 468 868 q 475 521 675 868 q 441 174 274 174 q 825 521 608 174 q 1128 868 1042 868 q 998 521 1215 868 q 955 174 781 174 q 1345 521 1128 174 q 1649 868 1563 868 q 1476 434 1736 868 q 608 0 1215 0 q 207 357 0 0 q 337 791 414 715 q 468 868 260 868 z "},"X":{"ha":1397,"x_min":0,"x_max":1370,"o":"m 533 868 q 626 868 533 868 q 744 724 719 868 q 961 724 769 579 q 1261 868 1153 868 q 1080 651 1370 868 q 829 217 791 434 q 760 0 868 0 q 626 144 651 0 q 409 144 601 289 q 109 0 217 0 q 290 217 0 0 q 555 570 579 434 q 439 787 530 705 q 533 868 347 868 z "},"Y":{"ha":1397,"x_min":0,"x_max":1370,"o":"m 1046 608 q 1071 651 1046 608 q 1146 781 1096 694 q 1283 868 1196 868 q 1219 608 1370 868 q 968 174 1069 347 q 434 0 868 0 q 76 131 0 0 q 239 262 152 262 q 300 218 326 262 q 534 174 274 174 q 845 260 795 174 q 548 347 895 347 q 301 521 201 347 q 331 781 401 694 q 468 868 260 868 q 575 694 675 868 q 735 521 475 521 q 1046 608 996 521 z "},"Z":{"ha":1397,"x_min":0,"x_max":1370,"o":"m 650 694 q 526 694 650 694 q 365 781 401 694 q 849 868 328 868 q 909 521 1370 868 q 708 174 448 174 q 918 87 968 174 q 434 0 868 0 q 450 347 0 0 q 650 694 899 694 z "},"[":{"ha":1076,"x_min":0,"x_max":1048,"o":"m 174 -174 q 87 -174 174 -174 q 351 434 0 -174 q 875 1042 701 1042 q 999 955 1048 1042 q 863 868 949 868 q 525 434 776 868 q 361 0 274 0 q 397 -87 448 0 q 174 -174 347 -174 z "},"\\":{"ha":393,"x_min":0,"x_max":366,"o":"m 75 434 q 37 651 75 434 q 109 868 0 868 q 292 434 217 868 q 258 0 366 0 q 75 434 149 0 z "},"]":{"ha":1076,"x_min":0,"x_max":1048,"o":"m 174 -174 q 87 -174 174 -174 q 50 -87 0 -174 q 187 0 100 0 q 525 434 274 0 q 689 868 776 868 q 652 955 602 868 q 875 1042 701 1042 q 698 434 1048 1042 q 174 -174 347 -174 z "},"^":{"ha":548,"x_min":0,"x_max":521,"o":"m 109 521 q 54 521 109 521 q 231 694 0 521 q 491 694 461 868 q 412 521 521 521 q 301 554 304 521 q 258 554 298 587 q 109 521 217 521 z "},"_":{"ha":996,"x_min":0,"x_max":968,"o":"m 434 -174 q 217 -174 434 -174 q 50 -87 0 -174 q 534 0 100 0 q 918 -87 968 0 q 434 -174 868 -174 z "},"`":{"ha":271,"x_min":0,"x_max":244,"o":"m 136 868 q 81 868 136 868 q 136 868 27 868 q 231 694 244 868 q 109 521 217 521 q 14 694 0 521 q 136 868 27 868 q 136 868 244 868 z "},"a":{"ha":1397,"x_min":0,"x_max":1370,"o":"m 735 521 q 865 521 735 521 q 1046 608 996 521 q 836 694 1096 694 q 525 608 575 694 q 735 521 475 521 m 87 0 q 43 0 87 0 q 201 347 0 0 q 331 781 401 694 q 815 868 260 868 q 1119 434 1370 868 q 781 0 868 0 q 795 174 694 0 q 635 347 895 347 q 274 174 374 347 q 87 0 174 0 z "},"b":{"ha":1242,"x_min":0,"x_max":1215,"o":"m 324 260 q 299 217 324 260 q 534 174 274 174 q 845 260 795 174 q 635 347 895 347 q 324 260 374 347 m 1046 608 q 1071 651 1046 608 q 836 694 1096 694 q 525 608 575 694 q 735 521 475 521 q 1046 608 996 521 m 1030 391 q 1068 369 1030 391 q 987 174 1105 347 q 434 0 868 0 q 201 347 0 0 q 331 781 401 694 q 738 868 260 868 q 1193 694 1215 868 q 1063 477 1171 521 q 1030 391 955 434 z "},"c":{"ha":1397,"x_min":0,"x_max":1370,"o":"m 434 0 q 217 0 434 0 q 201 347 0 0 q 331 781 401 694 q 815 868 260 868 q 1320 781 1370 868 q 922 694 1270 694 q 425 434 575 694 q 621 174 274 174 q 918 87 968 174 q 434 0 868 0 z "},"d":{"ha":1397,"x_min":0,"x_max":1370,"o":"m 534 174 q 665 174 534 174 q 945 434 795 174 q 836 694 1096 694 q 425 434 575 694 q 534 174 274 174 m 434 0 q 217 0 434 0 q 201 347 0 0 q 331 781 401 694 q 815 868 260 868 q 1119 434 1370 868 q 434 0 868 0 z "},"e":{"ha":1397,"x_min":0,"x_max":1370,"o":"m 434 0 q 217 0 434 0 q 201 347 0 0 q 331 781 401 694 q 815 868 260 868 q 1320 781 1370 868 q 922 694 1270 694 q 525 608 575 694 q 822 521 475 521 q 1119 434 1169 521 q 722 347 1069 347 q 324 260 374 347 q 621 174 274 174 q 918 87 968 174 q 434 0 868 0 z "},"f":{"ha":1397,"x_min":0,"x_max":1370,"o":"m 87 0 q 43 0 87 0 q 201 347 0 0 q 331 781 401 694 q 815 868 260 868 q 1320 781 1370 868 q 922 694 1270 694 q 525 608 575 694 q 822 521 475 521 q 1119 434 1169 521 q 722 347 1069 347 q 274 174 374 347 q 87 0 174 0 z "},"g":{"ha":1397,"x_min":0,"x_max":1370,"o":"m 434 0 q 217 0 434 0 q 201 347 0 0 q 331 781 401 694 q 815 868 260 868 q 1320 781 1370 868 q 922 694 1270 694 q 425 434 575 694 q 534 174 274 174 q 845 260 795 174 q 808 347 895 347 q 772 434 722 347 q 996 521 822 521 q 1019 260 1169 521 q 434 0 868 0 z "},"h":{"ha":1397,"x_min":0,"x_max":1370,"o":"m 87 0 q 43 0 87 0 q 201 347 0 0 q 331 781 401 694 q 468 868 260 868 q 575 694 675 868 q 735 521 475 521 q 1096 694 996 521 q 1283 868 1196 868 q 1119 434 1370 868 q 781 0 868 0 q 795 174 694 0 q 635 347 895 347 q 274 174 374 347 q 87 0 174 0 z "},"i":{"ha":703,"x_min":0,"x_max":675,"o":"m 87 0 q 43 0 87 0 q 201 347 0 0 q 331 781 401 694 q 468 868 260 868 q 425 434 675 868 q 87 0 174 0 z "},"j":{"ha":1397,"x_min":0,"x_max":1370,"o":"m 324 260 q 299 217 324 260 q 534 174 274 174 q 945 434 795 174 q 1025 781 1096 694 q 1162 868 955 868 q 1119 434 1370 868 q 434 0 868 0 q 100 174 0 0 q 288 347 201 347 q 324 260 374 347 z "},"k":{"ha":1397,"x_min":0,"x_max":1370,"o":"m 0 0 q 0 0 0 0 q 201 347 0 0 q 331 781 401 694 q 468 868 260 868 q 575 694 675 868 q 792 694 475 521 q 1240 868 1109 868 q 962 651 1370 868 q 711 217 555 434 q 738 0 868 0 q 491 174 608 0 q 274 174 374 347 q 87 0 174 0 q 0 0 0 0 z "},"l":{"ha":996,"x_min":0,"x_max":968,"o":"m 434 0 q 217 0 434 0 q 201 347 0 0 q 331 781 401 694 q 468 868 260 868 q 475 521 675 868 q 621 174 274 174 q 918 87 968 174 q 434 0 868 0 z "},"m":{"ha":1763,"x_min":0,"x_max":1736,"o":"m 87 0 q 43 0 87 0 q 217 347 0 0 q 347 781 434 694 q 998 868 260 868 q 1485 434 1736 868 q 1147 0 1234 0 q 1261 347 1061 0 q 1295 694 1462 694 q 911 347 1128 694 q 608 0 694 0 q 738 347 521 0 q 781 694 955 694 q 391 347 608 694 q 87 0 174 0 z "},"n":{"ha":1397,"x_min":0,"x_max":1370,"o":"m 87 0 q 43 0 87 0 q 201 347 0 0 q 331 781 401 694 q 815 868 260 868 q 1119 434 1370 868 q 781 0 868 0 q 895 347 694 0 q 836 694 1096 694 q 374 347 575 694 q 87 0 174 0 z "},"o":{"ha":1397,"x_min":0,"x_max":1370,"o":"m 534 174 q 665 174 534 174 q 945 434 795 174 q 836 694 1096 694 q 425 434 575 694 q 534 174 274 174 m 434 0 q 217 0 434 0 q 201 347 0 0 q 331 781 401 694 q 815 868 260 868 q 1119 434 1370 868 q 434 0 868 0 z "},"p":{"ha":1397,"x_min":0,"x_max":1370,"o":"m 735 521 q 865 521 735 521 q 1046 608 996 521 q 836 694 1096 694 q 525 608 575 694 q 735 521 475 521 m 87 0 q 43 0 87 0 q 201 347 0 0 q 331 781 401 694 q 815 868 260 868 q 1219 608 1370 868 q 722 347 1069 347 q 274 174 374 347 q 87 0 174 0 z "},"q":{"ha":1397,"x_min":0,"x_max":1370,"o":"m 534 174 q 665 174 534 174 q 945 434 795 174 q 836 694 1096 694 q 425 434 575 694 q 534 174 274 174 m 694 -87 q 694 -43 694 -87 q 347 0 694 0 q 201 347 0 0 q 331 781 401 694 q 815 868 260 868 q 1169 521 1370 868 q 918 87 968 174 q 868 -87 868 0 q 781 -174 868 -174 q 694 -87 694 -174 z "},"r":{"ha":1397,"x_min":0,"x_max":1370,"o":"m 735 521 q 865 521 735 521 q 1046 608 996 521 q 836 694 1096 694 q 525 608 575 694 q 735 521 475 521 m 600 174 q 574 260 600 174 q 461 347 548 347 q 274 174 374 347 q 87 0 174 0 q 201 347 0 0 q 331 781 401 694 q 815 868 260 868 q 1219 608 1370 868 q 917 347 1069 347 q 817 174 765 347 q 760 0 868 0 q 600 174 651 0 z "},"s":{"ha":1397,"x_min":0,"x_max":1370,"o":"m 434 0 q 217 0 434 0 q 50 87 0 0 q 448 174 100 174 q 845 260 795 174 q 548 347 895 347 q 301 521 201 347 q 331 781 401 694 q 815 868 260 868 q 1320 781 1370 868 q 922 694 1270 694 q 525 608 575 694 q 822 521 475 521 q 1019 260 1169 521 q 434 0 868 0 z "},"t":{"ha":1137,"x_min":0,"x_max":1109,"o":"m 174 0 q 130 0 174 0 q 288 347 87 0 q 315 694 488 694 q 71 781 141 694 q 555 868 0 868 q 1059 781 1109 868 q 836 694 1009 694 q 461 347 662 694 q 174 0 260 0 z "},"u":{"ha":1397,"x_min":0,"x_max":1370,"o":"m 434 0 q 217 0 434 0 q 201 347 0 0 q 331 781 401 694 q 468 868 260 868 q 475 521 675 868 q 534 174 274 174 q 996 521 795 174 q 1283 868 1196 868 q 1119 434 1370 868 q 434 0 868 0 z "},"v":{"ha":1050,"x_min":0,"x_max":1023,"o":"m 164 868 q 246 868 164 868 q 270 543 328 868 q 530 543 212 217 q 936 868 849 868 q 598 434 1023 868 q 87 0 174 0 q 62 349 0 0 q 62 783 125 697 q 164 868 0 868 z "},"w":{"ha":1763,"x_min":0,"x_max":1736,"o":"m 468 868 q 572 868 468 868 q 475 521 675 868 q 441 174 274 174 q 825 521 608 174 q 1128 868 1042 868 q 998 521 1215 868 q 955 174 781 174 q 1345 521 1128 174 q 1649 868 1563 868 q 1476 434 1736 868 q 608 0 1215 0 q 207 357 0 0 q 337 791 414 715 q 468 868 260 868 z "},"x":{"ha":1397,"x_min":0,"x_max":1370,"o":"m 533 868 q 626 868 533 868 q 744 724 719 868 q 961 724 769 579 q 1261 868 1153 868 q 1080 651 1370 868 q 829 217 791 434 q 760 0 868 0 q 626 144 651 0 q 409 144 601 289 q 109 0 217 0 q 290 217 0 0 q 555 570 579 434 q 439 787 530 705 q 533 868 347 868 z "},"y":{"ha":1397,"x_min":0,"x_max":1370,"o":"m 1046 608 q 1071 651 1046 608 q 1146 781 1096 694 q 1283 868 1196 868 q 1219 608 1370 868 q 968 174 1069 347 q 434 0 868 0 q 76 131 0 0 q 239 262 152 262 q 300 218 326 262 q 534 174 274 174 q 845 260 795 174 q 548 347 895 347 q 301 521 201 347 q 331 781 401 694 q 468 868 260 868 q 575 694 675 868 q 735 521 475 521 q 1046 608 996 521 z "},"z":{"ha":1397,"x_min":0,"x_max":1370,"o":"m 650 694 q 526 694 650 694 q 365 781 401 694 q 849 868 328 868 q 909 521 1370 868 q 708 174 448 174 q 918 87 968 174 q 434 0 868 0 q 450 347 0 0 q 650 694 899 694 z "},"{":{"ha":1076,"x_min":0,"x_max":1048,"o":"m 174 -174 q 87 -174 174 -174 q 151 87 0 -174 q 214 347 301 347 q 178 434 127 347 q 315 521 228 521 q 551 781 401 521 q 875 1042 701 1042 q 999 955 1048 1042 q 863 868 949 868 q 525 434 776 868 q 361 0 274 0 q 397 -87 448 0 q 174 -174 347 -174 z "},"|":{"ha":902,"x_min":0,"x_max":875,"o":"m 87 -174 q 43 -174 87 -174 q 351 434 0 -174 q 788 1042 701 1042 q 524 434 875 1042 q 87 -174 174 -174 z "},"}":{"ha":1076,"x_min":0,"x_max":1048,"o":"m 174 -174 q 87 -174 174 -174 q 50 -87 0 -174 q 187 0 100 0 q 525 434 274 0 q 689 868 776 868 q 652 955 602 868 q 875 1042 701 1042 q 899 781 1048 1042 q 836 521 749 521 q 872 434 922 521 q 735 347 822 347 q 498 87 648 347 q 174 -174 347 -174 z "},"~":{"ha":849,"x_min":0,"x_max":822,"o":"m 87 174 q 43 174 87 174 q 100 347 0 174 q 374 521 201 521 q 598 608 548 521 q 735 694 648 694 q 722 521 822 694 q 448 347 621 347 q 224 260 274 347 q 87 174 174 174 z "},"‘":{"ha":351,"x_min":0,"x_max":324,"o":"m 87 608 q 43 608 87 608 q 75 738 0 608 q 237 868 151 868 q 249 738 324 868 q 87 608 174 608 z "},"’":{"ha":351,"x_min":0,"x_max":324,"o":"m 87 608 q 43 608 87 608 q 75 738 0 608 q 237 868 151 868 q 249 738 324 868 q 87 608 174 608 z "},"“":{"ha":612,"x_min":0,"x_max":585,"o":"m 87 608 q 43 608 87 608 q 75 738 0 608 q 237 868 151 868 q 249 738 324 868 q 87 608 174 608 m 347 608 q 304 608 347 608 q 336 738 260 608 q 498 868 411 868 q 509 738 585 868 q 347 608 434 608 z "},"”":{"ha":612,"x_min":0,"x_max":585,"o":"m 87 608 q 43 608 87 608 q 75 738 0 608 q 237 868 151 868 q 249 738 324 868 q 87 608 174 608 m 347 608 q 304 608 347 608 q 336 738 260 608 q 498 868 411 868 q 509 738 585 868 q 347 608 434 608 z "}}}
